<svg width="26" height="26" viewBox="0 0 26 26" fill="none" xmlns="http://www.w3.org/2000/svg">
<path fill-rule="evenodd" clip-rule="evenodd" d="M5.73527 5.73429C6.15834 5.31123 6.84427 5.31123 7.26733 5.73429L13.0013 11.4683L18.7353 5.73429C19.1583 5.31123 19.8443 5.31123 20.2673 5.73429C20.6904 6.15736 20.6904 6.84329 20.2673 7.26636L14.5334 13.0003L20.2673 18.7343C20.6904 19.1574 20.6904 19.8433 20.2673 20.2664C19.8443 20.6894 19.1583 20.6894 18.7353 20.2664L13.0013 14.5324L7.26733 20.2664C6.84427 20.6894 6.15834 20.6894 5.73527 20.2664C5.3122 19.8433 5.3122 19.1574 5.73527 18.7343L11.4692 13.0003L5.73527 7.26636C5.3122 6.84329 5.3122 6.15736 5.73527 5.73429Z" fill="white"/>
</svg>
