<svg width="39" height="39" viewBox="0 0 39 39" fill="none" xmlns="http://www.w3.org/2000/svg">
<path d="M19.5 33.3125H11.375C6.5 33.3125 3.25 30.875 3.25 25.1875V13.8125C3.25 8.125 6.5 5.6875 11.375 5.6875H27.625C32.5 5.6875 35.75 8.125 35.75 13.8125V18.6875" stroke="white" stroke-width="1.5" stroke-miterlimit="10" stroke-linecap="round" stroke-linejoin="round"/>
<path d="M27.625 14.625L22.5387 18.6875C20.865 20.02 18.1187 20.02 16.445 18.6875L11.375 14.625M31.2162 24.0013L25.4638 29.7537C25.2363 29.9812 25.025 30.4037 24.9762 30.7125L24.6675 32.9062C24.5538 33.7025 25.1062 34.255 25.9025 34.1413L28.0963 33.8325C28.405 33.7837 28.8437 33.5725 29.055 33.345L34.8075 27.5925C35.7988 26.6012 36.27 25.4475 34.8075 23.985C33.3613 22.5388 32.2075 23.01 31.2162 24.0013Z" stroke="white" stroke-width="1.5" stroke-miterlimit="10" stroke-linecap="round" stroke-linejoin="round"/>
<path d="M30.3867 24.8301C30.8742 26.5851 32.2392 27.9501 33.9942 28.4376" stroke="white" stroke-width="1.5" stroke-miterlimit="10" stroke-linecap="round" stroke-linejoin="round"/>
</svg>
