<svg width="16" height="16" viewBox="0 0 16 16" fill="none" xmlns="http://www.w3.org/2000/svg">
<g clip-path="url(#clip0_805_869)">
<path d="M6.69372 8.65646C6.31602 8.65646 5.95744 8.72777 5.61799 8.87512C5.27853 9.02247 4.97255 9.21735 4.70959 9.46453C4.44664 9.7117 4.23627 9.9969 4.08328 10.3154C3.93028 10.6338 3.85379 10.9713 3.85379 11.3326C3.85379 11.8317 3.98288 12.2642 4.24105 12.6397C4.49923 13.0152 4.84824 13.3052 5.28331 13.5239C5.72317 13.7378 6.20605 13.8471 6.73196 13.8471C7.23397 13.8471 7.66426 13.771 8.02762 13.6189C8.39098 13.4668 8.69696 13.2672 8.94558 13.0152C9.19419 12.7681 9.39021 12.4876 9.52886 12.1834L11.0731 13.5096C10.7098 14.2036 10.1361 14.7882 9.35196 15.2731C8.56788 15.7579 7.58299 16.0003 6.39729 16.0003C5.45065 16.0003 4.59485 15.8054 3.82988 15.4109C3.06492 15.0164 2.45773 14.4793 2.01309 13.79C1.56846 13.1056 1.34375 12.326 1.34375 11.4562C1.34375 10.7907 1.49196 10.1823 1.79317 9.62139C2.09437 9.0605 2.49598 8.57566 3.00277 8.15737C3.50955 7.74383 4.0785 7.4111 4.70481 7.15917C5.33112 6.912 5.97656 6.77891 6.64591 6.76465L6.69372 8.65646ZM11.6421 6.76465H13.8748L11.3696 13.0961C10.7337 12.8441 10.093 12.5875 9.45715 12.3355C10.1839 10.477 10.9154 8.62319 11.6421 6.76465Z" fill="#F51B55"/>
<path d="M14.6487 15.7715C14.51 15.7715 14.2853 15.7715 13.9794 15.7715C13.6734 15.7715 13.3578 15.7715 13.0279 15.7715C12.7028 15.7715 12.306 15.7715 11.847 15.7715L4.79501 6.43122C4.6707 6.23634 4.51293 5.98917 4.32647 5.68495C4.14001 5.38074 3.97745 5.0385 3.84837 4.65824C3.7145 4.27798 3.65234 3.8882 3.65234 3.48417C3.65234 2.90427 3.80055 2.34813 4.0922 1.82527C4.38384 1.29765 4.81413 0.865102 5.37351 0.51811C5.93767 0.171119 6.6357 0 7.47238 0C8.36165 0 9.15052 0.175871 9.84377 0.527616C10.5322 0.879361 11.0916 1.30716 11.5219 1.8015L10.3123 3.39861C9.88202 2.98508 9.46129 2.65235 9.05968 2.40042C8.65808 2.15325 8.26125 2.02491 7.86921 2.02491C7.31461 2.02491 6.8891 2.19127 6.59745 2.524C6.30581 2.85674 6.1576 3.24176 6.1576 3.68381C6.1576 3.90722 6.21019 4.14013 6.31537 4.3873C6.42056 4.63447 6.52574 4.85312 6.64048 5.04326C6.75045 5.22864 6.82216 5.35222 6.85085 5.40451L14.6487 15.7715Z" fill="#F51B55"/>
<path d="M5.21185 6.98633C4.8963 7.08139 4.52338 7.21924 4.12656 7.42363C3.81579 7.58049 3.55283 7.75161 3.32812 7.90847C3.74886 8.4646 4.16959 9.0255 4.59032 9.58163C4.74809 9.41527 4.98714 9.19661 5.32659 9.01124C5.78557 8.75931 6.21586 8.68326 6.47404 8.65949C6.05809 8.10336 5.63736 7.54247 5.21185 6.98633Z" fill="#F51B55"/>
<path d="M9.3682 12.4873C9.24868 12.6822 9.03831 12.9674 8.70364 13.2241C8.32594 13.5188 7.94824 13.6566 7.71875 13.7184C8.1586 14.2936 8.59846 14.8687 9.04309 15.4439C9.32039 15.2965 9.65028 15.0921 9.98974 14.8117C10.2575 14.5883 10.4726 14.3696 10.6447 14.17C10.2144 13.6091 9.78893 13.0482 9.3682 12.4873Z" fill="#F51B55"/>
</g>
<defs>
<clipPath id="clip0_805_869">
<rect width="16" height="16" fill="white"/>
</clipPath>
</defs>
</svg>
