<svg width="39" height="39" viewBox="0 0 39 39" fill="none" xmlns="http://www.w3.org/2000/svg">
<path d="M14.625 35.75H24.375C32.5 35.75 35.75 32.5 35.75 24.375V14.625C35.75 6.5 32.5 3.25 24.375 3.25H14.625C6.5 3.25 3.25 6.5 3.25 14.625V24.375C3.25 32.5 6.5 35.75 14.625 35.75Z" stroke="white" stroke-width="1.5" stroke-linecap="round" stroke-linejoin="round"/>
<path d="M19.5 25.1875C20.2469 25.1875 20.9865 25.0404 21.6765 24.7546C22.3666 24.4687 22.9935 24.0498 23.5217 23.5217C24.0498 22.9935 24.4687 22.3666 24.7546 21.6765C25.0404 20.9865 25.1875 20.2469 25.1875 19.5C25.1875 18.7531 25.0404 18.0135 24.7546 17.3235C24.4687 16.6334 24.0498 16.0065 23.5217 15.4783C22.9935 14.9502 22.3666 14.5313 21.6765 14.2454C20.9865 13.9596 20.2469 13.8125 19.5 13.8125C17.9916 13.8125 16.5449 14.4117 15.4783 15.4783C14.4117 16.5449 13.8125 17.9916 13.8125 19.5C13.8125 21.0084 14.4117 22.4551 15.4783 23.5217C16.5449 24.5883 17.9916 25.1875 19.5 25.1875Z" stroke="white" stroke-width="1.5" stroke-linecap="round" stroke-linejoin="round"/>
<path d="M28.6562 11.375H28.6758" stroke="white" stroke-width="2" stroke-linecap="round" stroke-linejoin="round"/>
</svg>
