<svg width="295" height="266" viewBox="0 0 295 266" fill="none" xmlns="http://www.w3.org/2000/svg">
<g clip-path="url(#clip0_904_855)">
<mask id="mask0_904_855" style="mask-type:luminance" maskUnits="userSpaceOnUse" x="8" y="225" width="287" height="41">
<path d="M295 225H8V266H295V225Z" fill="white"/>
</mask>
<g mask="url(#mask0_904_855)">
<path d="M31.1375 228.621L29.2253 231.926C26.5329 230.367 23.5573 229.404 20.4866 229.096C18.4611 229.046 16.4769 229.693 14.8456 230.936C14.183 231.455 13.6486 232.129 13.2863 232.903C12.924 233.677 12.7441 234.529 12.7613 235.389C12.7386 236.295 12.9477 237.191 13.3675 237.987C13.7872 238.783 14.4027 239.45 15.1516 239.92C17.1704 241.29 19.3402 242.406 21.6148 243.244C24.2054 244.23 26.6609 245.56 28.9193 247.202C30.0908 248.08 31.047 249.23 31.7111 250.56C32.3753 251.89 32.7289 253.363 32.7437 254.86C32.7623 256.609 32.3487 258.334 31.5422 259.872C30.7357 261.409 29.563 262.708 28.1353 263.645C25.6366 265.193 22.7672 265.982 19.8556 265.921C15.5817 266.051 11.395 264.653 8 261.963L9.91219 258.639C12.7233 260.984 16.2455 262.225 19.8556 262.141C22.0728 262.165 24.2544 261.563 26.1658 260.4C27.1094 259.841 27.88 259.016 28.3879 258.021C28.8957 257.026 29.1198 255.902 29.034 254.78C29.0587 253.863 28.851 252.955 28.4317 252.146C28.0124 251.337 27.3961 250.656 26.6438 250.17C24.6327 248.777 22.4697 247.635 20.1997 246.766C17.6171 245.839 15.1618 244.569 12.8952 242.987C11.7271 242.119 10.7724 240.979 10.1081 239.659C9.4438 238.34 9.08849 236.877 9.07082 235.389C9.0664 233.953 9.37535 232.534 9.97464 231.239C10.5739 229.944 11.4481 228.806 12.5319 227.909C14.8197 226.124 17.6223 225.19 20.4866 225.257C24.2491 225.461 27.906 226.616 31.1375 228.621Z" fill="#121212"/>
<path d="M55.3838 228.502L53.376 232.024C52.9098 231.235 52.2898 230.554 51.5557 230.026C50.8216 229.498 49.9894 229.134 49.1119 228.957C48.6217 228.929 48.1311 229.007 47.6722 229.188C47.2133 229.368 46.7963 229.647 46.4482 230.005C46.1001 230.364 45.8288 230.794 45.6519 231.268C45.475 231.742 45.3964 232.249 45.4213 232.756C45.4225 233.451 45.6006 234.134 45.9376 234.735L47.8498 237.525L50.068 240.83L60.2217 255.848C61.8328 253.538 62.7386 250.781 62.8222 247.933H66.6466C66.5025 252.07 65.0289 256.04 62.4589 259.212L66.9334 265.861H62.3251L59.7054 261.903C56.6511 264.285 52.9359 265.582 49.1119 265.604C45.5619 265.604 42.1573 264.144 39.647 261.547C37.1368 258.949 35.7266 255.426 35.7266 251.752V251.653C35.7995 249.592 36.3163 247.574 37.2393 245.746C38.1623 243.918 39.4682 242.326 41.0616 241.087C42.075 240.343 43.1426 239.681 44.2549 239.108L42.6869 236.872C41.6558 235.125 41.33 233.029 41.7798 231.035C42.2295 229.042 43.4188 227.312 45.0908 226.218C46.7628 225.124 48.7834 224.755 50.7164 225.19C52.6493 225.624 54.3395 226.828 55.4221 228.541L55.3838 228.502ZM43.4518 244.49C42.2684 245.333 41.3016 246.462 40.6352 247.78C39.9688 249.097 39.6228 250.562 39.6274 252.049C39.6298 253.34 39.8799 254.618 40.3631 255.808C40.8464 256.999 41.5531 258.078 42.4425 258.984C43.3319 259.889 44.3861 260.603 45.5441 261.084C46.7021 261.565 47.9408 261.803 49.1884 261.785C52.2245 261.767 55.1695 260.709 57.5637 258.777L46.5304 242.571C45.4504 243.113 44.42 243.756 43.4518 244.49Z" fill="#121212"/>
<path d="M103.913 230.362L102.001 233.706C98.6322 230.723 94.3671 229.045 89.9347 228.957C79.1882 228.957 73.0119 236.338 73.0119 245.579C73.0119 254.819 79.2647 262.121 90.0112 262.121C94.4512 262.001 98.7144 260.295 102.077 257.293L103.989 260.617C100.111 264.094 95.1426 265.993 90.0112 265.96C77.4864 265.96 69.1875 256.66 69.1875 245.579C69.1875 234.497 77.4864 225.197 89.9347 225.197C95.0306 225.197 99.9695 227.022 103.913 230.362Z" fill="#121212"/>
<path d="M161.163 230.084L159.251 233.448C156.064 230.597 151.99 229.031 147.778 229.035C137.05 229.035 130.778 236.337 130.778 245.578C130.843 247.82 131.334 250.027 132.223 252.072C133.113 254.117 134.383 255.961 135.962 257.498C137.541 259.034 139.398 260.234 141.425 261.027C143.453 261.82 145.611 262.192 147.778 262.12C151.56 262.222 155.271 261.048 158.352 258.776V246.666H150.244V242.709H161.851L162.023 260.32L161.565 260.874C158.371 264.831 152.596 266.019 147.701 266.019C142.337 266.146 137.142 264.065 133.26 260.232C129.377 256.4 127.123 251.129 126.992 245.578C126.992 234.437 135.272 225.197 147.701 225.197C152.623 225.014 157.43 226.759 161.163 230.084Z" fill="#121212"/>
<path d="M177.61 226.189C179.456 226.114 181.298 226.424 183.027 227.1C184.755 227.776 186.335 228.804 187.672 230.124C189.01 231.443 190.078 233.027 190.813 234.781C191.548 236.536 191.935 238.425 191.951 240.337C191.943 243.811 190.699 247.16 188.455 249.744C186.212 252.328 183.127 253.967 179.79 254.346L191.951 264.992H186.578L174.57 254.505H169.789V264.992H165.965V226.189H177.61ZM169.789 240.337V250.725H177.61C178.971 250.803 180.334 250.594 181.615 250.111C182.896 249.628 184.068 248.881 185.062 247.915C186.056 246.95 186.851 245.786 187.397 244.493C187.944 243.201 188.231 241.807 188.242 240.396C188.239 238.981 187.957 237.582 187.414 236.283C186.871 234.985 186.077 233.815 185.082 232.844C184.087 231.874 182.911 231.123 181.627 230.639C180.342 230.155 178.975 229.947 177.61 230.027H169.789V240.337Z" fill="#121212"/>
<path d="M234.384 245.598C234.388 249.626 233.237 253.564 231.077 256.915C228.918 260.266 225.846 262.879 222.251 264.423C218.656 265.967 214.699 266.373 210.881 265.59C207.063 264.807 203.555 262.869 200.801 260.022C198.047 257.175 196.172 253.547 195.411 249.597C194.65 245.647 195.039 241.552 196.527 237.83C198.016 234.108 200.538 230.927 203.774 228.689C207.01 226.451 210.815 225.256 214.708 225.256C219.921 225.261 224.92 227.405 228.609 231.218C232.297 235.031 234.374 240.202 234.384 245.598ZM198.741 245.598C198.737 248.866 199.67 252.063 201.422 254.782C203.175 257.502 205.667 259.623 208.584 260.877C211.501 262.13 214.712 262.46 217.811 261.825C220.909 261.19 223.756 259.618 225.991 257.308C228.226 254.998 229.749 252.054 230.366 248.848C230.984 245.642 230.669 242.319 229.461 239.299C228.253 236.279 226.206 233.697 223.58 231.881C220.954 230.064 217.866 229.095 214.708 229.095C212.612 229.092 210.536 229.517 208.599 230.345C206.662 231.173 204.902 232.389 203.419 233.921C201.936 235.454 200.759 237.274 199.957 239.278C199.154 241.281 198.741 243.429 198.741 245.598Z" fill="#121212"/>
<path d="M241.706 226.207V252.228C241.706 254.941 242.747 257.543 244.601 259.462C246.455 261.38 248.97 262.458 251.592 262.458C254.214 262.458 256.728 261.38 258.582 259.462C260.436 257.543 261.478 254.941 261.478 252.228V226.207H265.187V252.228C265.187 255.959 263.755 259.538 261.205 262.176C258.656 264.815 255.198 266.297 251.592 266.297C247.986 266.297 244.528 264.815 241.978 262.176C239.428 259.538 237.996 255.959 237.996 252.228V226.207H241.706Z" fill="#121212"/>
<path d="M280.663 226.207C282.51 226.136 284.353 226.448 286.081 227.127C287.81 227.805 289.389 228.835 290.726 230.156C292.063 231.477 293.131 233.062 293.866 234.817C294.601 236.572 294.988 238.462 295.004 240.375C294.988 242.287 294.6 244.176 293.865 245.931C293.13 247.685 292.063 249.269 290.725 250.588C289.388 251.907 287.808 252.936 286.08 253.612C284.351 254.288 282.509 254.598 280.663 254.523H272.823V265.011H269.113V226.207H280.663ZM272.823 240.375V250.724H280.663C282.023 250.811 283.386 250.609 284.668 250.131C285.95 249.652 287.124 248.907 288.117 247.941C289.11 246.975 289.901 245.809 290.442 244.515C290.983 243.22 291.262 241.825 291.262 240.415C291.262 239.005 290.983 237.609 290.442 236.315C289.901 235.02 289.11 233.854 288.117 232.888C287.124 231.923 285.95 231.177 284.668 230.699C283.386 230.22 282.023 230.018 280.663 230.105H272.823V240.375Z" fill="#121212"/>
</g>
<path d="M71.5172 100.982C67.1742 100.982 63.0511 101.802 59.1478 103.496C55.2446 105.19 51.7262 107.431 48.7025 110.273C45.6789 113.116 43.26 116.395 41.5008 120.057C39.7416 123.719 38.862 127.6 38.862 131.753C38.862 137.492 40.3463 142.466 43.315 146.784C46.2836 151.102 50.2968 154.436 55.2996 156.95C60.3573 159.41 65.9098 160.667 71.957 160.667C77.7294 160.667 82.6772 159.792 86.8553 158.043C91.0334 156.294 94.5518 153.999 97.4105 151.102C100.269 148.26 102.523 145.035 104.118 141.537L121.875 156.786C117.696 164.766 111.099 171.489 102.083 177.064C93.0675 182.639 81.7426 185.426 68.1088 185.426C57.2237 185.426 47.3831 183.185 38.5871 178.649C29.7911 174.112 22.8092 167.936 17.6965 160.011C12.5838 152.14 10 143.177 10 133.174C10 125.523 11.7042 118.527 15.1677 112.077C18.6311 105.628 23.249 100.053 29.0764 95.2429C34.9038 90.4877 41.4458 86.6618 48.6476 83.765C55.8493 80.9229 63.271 79.3925 70.9675 79.2285L71.5172 100.982ZM128.417 79.2285H154.09L125.283 152.031C117.971 149.134 110.605 146.183 103.293 143.286C111.649 121.915 120.06 100.599 128.417 79.2285Z" fill="#F52059"/>
<path d="M162.998 182.803C161.403 182.803 158.82 182.803 155.301 182.803C151.783 182.803 148.154 182.803 144.361 182.803C140.623 182.803 136.06 182.803 130.782 182.803L49.6938 75.4033C48.2644 73.1624 46.4502 70.3203 44.3062 66.8223C42.1622 63.3243 40.293 59.389 38.8087 55.0165C37.2694 50.644 36.5547 46.1621 36.5547 41.5163C36.5547 34.8482 38.2589 28.4534 41.6124 22.4412C44.9659 16.3743 49.9137 11.4006 56.3458 7.41068C62.8328 3.42076 70.8592 1.45312 80.4799 1.45312C90.7053 1.45312 99.7761 3.4754 107.748 7.51998C115.664 11.5646 122.096 16.4837 127.044 22.1679L113.135 40.5325C108.187 35.7774 103.35 31.9514 98.7316 29.0547C94.1137 26.2125 89.5508 24.7368 85.0428 24.7368C78.6657 24.7368 73.7729 26.6498 70.4194 30.4757C67.0659 34.3017 65.3617 38.7288 65.3617 43.8119C65.3617 46.3808 65.9664 49.0589 67.1759 51.9011C68.3853 54.7432 69.5948 57.2574 70.9142 59.4436C72.1786 61.5752 73.0032 62.9963 73.3331 63.5975L162.998 182.803Z" fill="#F51B55"/>
<path d="M54.4766 81.7988C50.8483 82.892 46.5602 84.477 41.9973 86.8272C38.4239 88.6309 35.4002 90.5985 32.8164 92.4022C37.6542 98.797 42.4921 105.246 47.3299 111.641C49.144 109.728 51.8928 107.214 55.796 105.082C61.0737 102.186 66.0214 101.311 68.9901 101.038C64.2072 94.6431 59.3694 88.1936 54.4766 81.7988Z" fill="#BD1441"/>
<path d="M102.31 145.039C100.936 147.28 98.5169 150.559 94.6686 153.511C90.3256 156.9 85.9826 158.485 83.3438 159.195C88.4015 165.809 93.4592 172.422 98.5719 179.035C101.76 177.341 105.554 174.991 109.457 171.766C112.536 169.197 115.009 166.683 116.989 164.387C112.041 157.938 107.148 151.489 102.31 145.039Z" fill="#AD133C"/>
</g>
<defs>
<clipPath id="clip0_904_855">
<rect width="295" height="266" fill="white"/>
</clipPath>
</defs>
</svg>
