<svg width="41" height="49" viewBox="0 0 41 49" fill="none" xmlns="http://www.w3.org/2000/svg">
<g clip-path="url(#clip0_719_617)">
<path d="M16.1358 26.1072C14.9967 26.1072 13.9152 26.3222 12.8914 26.7667C11.8675 27.2111 10.9447 27.7989 10.1516 28.5444C9.35849 29.2899 8.72402 30.15 8.26258 31.1106C7.80115 32.0711 7.57043 33.089 7.57043 34.1785C7.57043 35.6838 7.95976 36.9884 8.73843 38.121C9.51711 39.2536 10.5698 40.1281 11.882 40.7875C13.2086 41.4327 14.665 41.7624 16.2512 41.7624C17.7653 41.7624 19.0631 41.533 20.159 41.0743C21.2549 40.6155 22.1777 40.0134 22.9276 39.2536C23.6774 38.5081 24.2686 37.6622 24.6868 36.7447L29.3444 40.7445C28.2485 42.8376 26.5181 44.601 24.1533 46.0633C21.7884 47.5256 18.8179 48.2567 15.2418 48.2567C12.3867 48.2567 9.8055 47.669 7.49833 46.479C5.19115 45.2891 3.35983 43.6691 2.01878 41.5904C0.677733 39.5259 0 37.1748 0 34.5513C0 32.5442 0.447019 30.7091 1.35547 29.0175C2.26392 27.3258 3.47519 25.8635 5.00369 24.6019C6.5322 23.3546 8.24816 22.3511 10.1372 21.5913C12.0262 20.8458 13.9728 20.4444 15.9916 20.4014L16.1358 26.1072ZM31.0604 20.4014H37.7945L30.2384 39.4973C28.3206 38.7375 26.3883 37.9633 24.4705 37.2035C26.6623 31.598 28.8686 26.0068 31.0604 20.4014Z" fill="#F52059"/>
<path d="M40.1305 47.5677C39.7123 47.5677 39.0346 47.5677 38.1117 47.5677C37.1889 47.5677 36.2372 47.5677 35.2422 47.5677C34.2616 47.5677 33.0648 47.5677 31.6805 47.5677L10.4112 19.397C10.0363 18.8092 9.56042 18.0637 8.99804 17.1462C8.43567 16.2286 7.9454 15.1964 7.55606 14.0495C7.1523 12.9026 6.96484 11.7271 6.96484 10.5085C6.96484 8.75946 7.41186 7.08211 8.29147 5.50512C9.17108 3.9138 10.4689 2.6092 12.156 1.56265C13.8575 0.516105 15.9628 0 18.4863 0C21.1684 0 23.5477 0.530438 25.6386 1.59132C27.715 2.65221 29.4021 3.94247 30.6999 5.43344L27.0517 10.2504C25.7539 9.00317 24.485 7.99964 23.2737 7.23981C22.0624 6.49433 20.8656 6.10724 19.6832 6.10724C18.0105 6.10724 16.7271 6.60901 15.8475 7.61255C14.9679 8.61609 14.5208 9.77733 14.5208 11.1106C14.5208 11.7844 14.6795 12.4869 14.9967 13.2324C15.3139 13.9779 15.6312 14.6373 15.9773 15.2108C16.3089 15.7699 16.5252 16.1426 16.6117 16.3003L40.1305 47.5677Z" fill="#F51B55"/>
<path d="M11.6658 21.0732C10.7141 21.36 9.58934 21.7757 8.39249 22.3922C7.4552 22.8653 6.66211 23.3814 5.98438 23.8545C7.25332 25.5318 8.52227 27.2235 9.79122 28.9008C10.2671 28.3991 10.9881 27.7396 12.0119 27.1805C13.3962 26.4207 14.694 26.1913 15.4726 26.1196C14.2181 24.4423 12.9492 22.7506 11.6658 21.0732Z" fill="#BD1441"/>
<path d="M24.2131 37.6621C23.8526 38.2499 23.2182 39.1101 22.2088 39.8842C21.0696 40.7731 19.9304 41.1888 19.2383 41.3752C20.5649 43.1099 21.8915 44.8446 23.2326 46.5793C24.0689 46.1348 25.0639 45.5184 26.0877 44.6725C26.8952 43.9987 27.5441 43.3393 28.0632 42.7371C26.7654 41.0455 25.4821 39.3538 24.2131 37.6621Z" fill="#AD133C"/>
</g>
<defs>
<clipPath id="clip0_719_617">
<rect width="41" height="49" fill="white"/>
</clipPath>
</defs>
</svg>
