<svg width="26" height="26" viewBox="0 0 26 26" fill="none" xmlns="http://www.w3.org/2000/svg">
<g clip-path="url(#clip0_906_877)">
<mask id="mask0_906_877" style="mask-type:luminance" maskUnits="userSpaceOnUse" x="0" y="0" width="26" height="26">
<path d="M26 0H0V26H26V0Z" fill="white"/>
</mask>
<g mask="url(#mask0_906_877)">
<path fill-rule="evenodd" clip-rule="evenodd" d="M13 0C13.718 0 14.3 0.58203 14.3 1.3V2.6C14.3 3.31797 13.718 3.9 13 3.9C12.282 3.9 11.7 3.31797 11.7 2.6V1.3C11.7 0.58203 12.282 0 13 0ZM3.80756 3.80756C4.31524 3.29988 5.13836 3.29988 5.64604 3.80756L6.56514 4.72666C7.07282 5.23434 7.07282 6.05746 6.56514 6.56514C6.05746 7.07282 5.23434 7.07282 4.72666 6.56514L3.80756 5.64604C3.29988 5.13836 3.29988 4.31524 3.80756 3.80756ZM22.1924 3.80756C22.7001 4.31524 22.7001 5.13836 22.1924 5.64604L21.2733 6.56514C20.7657 7.07282 19.9425 7.07282 19.4349 6.56514C18.9272 6.05746 18.9272 5.23434 19.4349 4.72666L20.354 3.80756C20.8616 3.29988 21.6848 3.29988 22.1924 3.80756ZM13 9.1C11.9657 9.1 10.9737 9.51089 10.2423 10.2423C9.51089 10.9737 9.1 11.9657 9.1 13C9.1 14.0343 9.51089 15.0263 10.2423 15.7577C10.9737 16.4891 11.9657 16.9 13 16.9C14.0343 16.9 15.0263 16.4891 15.7577 15.7577C16.4891 15.0263 16.9 14.0343 16.9 13C16.9 11.9657 16.4891 10.9737 15.7577 10.2423C15.0263 9.51089 14.0343 9.1 13 9.1ZM8.40381 8.40381C9.62279 7.18482 11.2761 6.5 13 6.5C14.7239 6.5 16.3772 7.18482 17.5962 8.40381C18.8152 9.62279 19.5 11.2761 19.5 13C19.5 14.7239 18.8152 16.3772 17.5962 17.5962C16.3772 18.8152 14.7239 19.5 13 19.5C11.2761 19.5 9.62279 18.8152 8.40381 17.5962C7.18482 16.3772 6.5 14.7239 6.5 13C6.5 11.2761 7.18482 9.62279 8.40381 8.40381ZM0 13C0 12.282 0.58203 11.7 1.3 11.7H2.6C3.31797 11.7 3.9 12.282 3.9 13C3.9 13.718 3.31797 14.3 2.6 14.3H1.3C0.58203 14.3 0 13.718 0 13ZM22.1 13C22.1 12.282 22.682 11.7 23.4 11.7H24.7C25.418 11.7 26 12.282 26 13C26 13.718 25.418 14.3 24.7 14.3H23.4C22.682 14.3 22.1 13.718 22.1 13ZM6.56514 19.4349C7.07282 19.9425 7.07282 20.7657 6.56514 21.2733L5.64604 22.1924C5.13836 22.7001 4.31524 22.7001 3.80756 22.1924C3.29988 21.6848 3.29988 20.8616 3.80756 20.354L4.72666 19.4349C5.23434 18.9272 6.05746 18.9272 6.56514 19.4349ZM19.4349 19.4349C19.9425 18.9272 20.7657 18.9272 21.2733 19.4349L22.1924 20.354C22.7001 20.8616 22.7001 21.6848 22.1924 22.1924C21.6848 22.7001 20.8616 22.7001 20.354 22.1924L19.4349 21.2733C18.9272 20.7657 18.9272 19.9425 19.4349 19.4349ZM13 22.1C13.718 22.1 14.3 22.682 14.3 23.4V24.7C14.3 25.418 13.718 26 13 26C12.282 26 11.7 25.418 11.7 24.7V23.4C11.7 22.682 12.282 22.1 13 22.1Z" fill="white"/>
</g>
</g>
<defs>
<clipPath id="clip0_906_877">
<rect width="26" height="26" fill="white"/>
</clipPath>
</defs>
</svg>
